<svg xmlns="http://www.w3.org/2000/svg" viewBox="0 0 800 400" width="800" height="400" role="img" aria-labelledby="t d" font-family="Heebo, Rubik, Arial, sans-serif">
<title id="t">קיואינג: מה הולך לרמקולים ומה לאוזניות</title>
<desc id="d">דק A עובר בערוץ עם פיידר פתוח ל-Master ולרמקולים. דק B עם פיידר סגור וכפתור CUE דולק נשלח לאוזניות. ידית Headphones Mix מאזנת בין CUE ל-Master באוזניות.</desc>
<rect x="1" y="1" width="798" height="398" rx="16" fill="#7f7f7f" fill-opacity="0.07" stroke="#7f7f7f" stroke-opacity="0.28"/>
<defs>
<marker id="arr" viewBox="0 0 10 10" refX="8" refY="5" markerWidth="7" markerHeight="7" orient="auto-start-reverse"><path d="M0,0 L10,5 L0,10 z" fill="#858b95"/></marker>
</defs>
<text x="400.0" y="34.0" font-size="20" fill="#858b95" text-anchor="middle" direction="rtl" font-weight="bold" >קיואינג — הקהל שומע דבר אחד, אתם שומעים שניים</text>
<rect x="640.0" y="70.0" width="140.0" height="70.0" rx="12" fill="#3d7ff0" />
<text x="710.0" y="100.0" font-size="16" fill="#ffffff" text-anchor="middle" direction="rtl" font-weight="bold" >דק A</text>
<text x="710.0" y="122.0" font-size="12" fill="#ffffff" text-anchor="middle" direction="rtl" font-weight="normal" >מתנגן לקהל</text>
<rect x="640.0" y="230.0" width="140.0" height="70.0" rx="12" fill="#e07a1b" />
<text x="710.0" y="260.0" font-size="16" fill="#ffffff" text-anchor="middle" direction="rtl" font-weight="bold" >דק B</text>
<text x="710.0" y="282.0" font-size="12" fill="#ffffff" text-anchor="middle" direction="rtl" font-weight="normal" >השיר הבא</text>
<rect x="450.0" y="70.0" width="140.0" height="70.0" rx="12" fill="#7f7f7f" fill-opacity="0.14" stroke="#3d7ff0" stroke-width="2"/>
<text x="560.0" y="92.0" font-size="13.5" fill="#3d7ff0" text-anchor="middle" direction="rtl" font-weight="bold" >ערוץ A</text>
<rect x="476.0" y="84.0" width="5.0" height="46.0" rx="2" fill="#9aa0a9" />
<rect x="468.0" y="86.0" width="21.0" height="10.0" rx="2" fill="#3d7ff0" />
<text x="560.0" y="114.0" font-size="11.5" fill="#858b95" text-anchor="middle" direction="rtl" font-weight="bold" >פיידר פתוח</text>
<rect x="500.0" y="120.0" width="40.0" height="15.0" rx="4" fill="#7f7f7f" fill-opacity="0.35"/>
<text x="520.0" y="131.0" font-size="10" fill="#858b95" text-anchor="middle" font-weight="bold" >CUE</text>
<rect x="450.0" y="230.0" width="140.0" height="70.0" rx="12" fill="#7f7f7f" fill-opacity="0.14" stroke="#e07a1b" stroke-width="2"/>
<text x="560.0" y="252.0" font-size="13.5" fill="#e07a1b" text-anchor="middle" direction="rtl" font-weight="bold" >ערוץ B</text>
<rect x="476.0" y="244.0" width="5.0" height="46.0" rx="2" fill="#9aa0a9" />
<rect x="468.0" y="278.0" width="21.0" height="10.0" rx="2" fill="#e07a1b" />
<text x="560.0" y="274.0" font-size="11.5" fill="#858b95" text-anchor="middle" direction="rtl" font-weight="bold" >פיידר סגור</text>
<rect x="500.0" y="280.0" width="40.0" height="15.0" rx="4" fill="#e0b31b" />
<text x="520.0" y="291.0" font-size="10" fill="#2b2f36" text-anchor="middle" font-weight="bold" >CUE</text>
<line x1="638.0" y1="105.0" x2="593.0" y2="105.0" stroke="#3d7ff0" stroke-width="3" marker-end="url(#arr)"/>
<line x1="638.0" y1="265.0" x2="593.0" y2="265.0" stroke="#e07a1b" stroke-width="3" marker-end="url(#arr)"/>
<rect x="250.0" y="70.0" width="150.0" height="70.0" rx="12" fill="#cf3434" />
<text x="325.0" y="100.0" font-size="15" fill="#ffffff" text-anchor="middle" font-weight="bold" >MASTER</text>
<text x="325.0" y="122.0" font-size="12" fill="#ffffff" text-anchor="middle" direction="rtl" font-weight="normal" >מה שהקהל שומע</text>
<line x1="448.0" y1="105.0" x2="403.0" y2="105.0" stroke="#3d7ff0" stroke-width="3" marker-end="url(#arr)"/>
<rect x="40.0" y="64.0" width="62.0" height="86.0" rx="8" fill="#4a5466" />
<circle cx="71" cy="88" r="9" fill="#2b3240" stroke="#8a95a8" stroke-width="2"/>
<circle cx="71" cy="124" r="17" fill="#2b3240" stroke="#8a95a8" stroke-width="2"/>
<rect x="120.0" y="64.0" width="62.0" height="86.0" rx="8" fill="#4a5466" />
<circle cx="151" cy="88" r="9" fill="#2b3240" stroke="#8a95a8" stroke-width="2"/>
<circle cx="151" cy="124" r="17" fill="#2b3240" stroke="#8a95a8" stroke-width="2"/>
<line x1="248.0" y1="105.0" x2="185.0" y2="105.0" stroke="#cf3434" stroke-width="3" marker-end="url(#arr)"/>
<text x="110.0" y="172.0" font-size="13" fill="#858b95" text-anchor="middle" direction="rtl" font-weight="bold" >רמקולים / Booth</text>
<rect x="250.0" y="230.0" width="150.0" height="70.0" rx="12" fill="#c99a12" />
<text x="325.0" y="260.0" font-size="15" fill="#ffffff" text-anchor="middle" font-weight="bold" >CUE</text>
<text x="325.0" y="282.0" font-size="12" fill="#ffffff" text-anchor="middle" direction="rtl" font-weight="normal" >רק מה שבחרתם</text>
<line x1="448.0" y1="265.0" x2="403.0" y2="265.0" stroke="#e07a1b" stroke-width="3" marker-end="url(#arr)"/>
<circle cx="185" cy="265" r="26" fill="#7f7f7f" fill-opacity="0.15" stroke="#858b95" stroke-width="2.5"/>
<line x1="185.0" y1="265.0" x2="176.0" y2="247.0" stroke="#858b95" stroke-width="4" stroke-linecap="round"/>
<text x="151.0" y="305.0" font-size="11" fill="#c99a12" text-anchor="middle" font-weight="bold" >CUE</text>
<text x="221.0" y="305.0" font-size="11" fill="#cf3434" text-anchor="middle" font-weight="bold" >MASTER</text>
<text x="185.0" y="325.0" font-size="12.5" fill="#858b95" text-anchor="middle" direction="rtl" font-weight="bold" >Headphones Mix</text>
<line x1="248.0" y1="265.0" x2="214.0" y2="265.0" stroke="#c99a12" stroke-width="3" marker-end="url(#arr)"/>
<path d="M300,142 C300,190 230,190 205,242" fill="none" stroke="#cf3434" stroke-width="2.5" stroke-dasharray="6 5" marker-end="url(#arr)"/>
<path d="M40,272 C40,228 100,228 100,272" fill="none" stroke="#596476" stroke-width="7" stroke-linecap="round"/>
<rect x="28.0" y="262.0" width="20.0" height="32.0" rx="7" fill="#7d43c9" />
<rect x="92.0" y="262.0" width="20.0" height="32.0" rx="7" fill="#7d43c9" />
<line x1="157.0" y1="265.0" x2="118.0" y2="265.0" stroke="#858b95" stroke-width="3" marker-end="url(#arr)"/>
<text x="70.0" y="312.0" font-size="13" fill="#858b95" text-anchor="middle" direction="rtl" font-weight="bold" >אוזניות</text>
<rect x="20.0" y="344.0" width="760.0" height="40.0" rx="10" fill="#7f7f7f" fill-opacity="0.12"/>
<text x="400.0" y="369.0" font-size="13.5" fill="#858b95" text-anchor="middle" direction="rtl" font-weight="bold" >ידית שמאלה = רק השיר הבא · באמצע = שניהם · ימינה = רק ה-Master</text>
</svg>
